<svg id="图层_1" data-name="图层 1" xmlns="http://www.w3.org/2000/svg" xmlns:xlink="http://www.w3.org/1999/xlink" viewBox="0 0 129 52"><defs><style>.cls-1{fill:url(#未命名的渐变_10);}.cls-2{fill:url(#未命名的渐变_10-2);}.cls-3{fill:url(#未命名的渐变_10-3);}.cls-4{fill:#fff;}</style><linearGradient id="未命名的渐变_10" x1="22.42" y1="0.02" x2="24.29" y2="52" gradientUnits="userSpaceOnUse"><stop offset="0" stop-color="#fea900"/><stop offset="1" stop-color="#f75f00"/></linearGradient><linearGradient id="未命名的渐变_10-2" x1="33.71" y1="-0.37" x2="35.58" y2="51.6" xlink:href="#未命名的渐变_10"/><linearGradient id="未命名的渐变_10-3" x1="9.37" y1="0.5" x2="11.24" y2="52.48" xlink:href="#未命名的渐变_10"/></defs><title>logo白色</title><polygon class="cls-1" points="44.49 12.46 22.87 0 1.24 12.46 10.1 17.57 22.87 10.22 35.63 17.57 44.49 12.46"/><polygon class="cls-2" points="36.87 19.72 24.11 27.07 32.97 32.18 36.87 29.93 36.87 34.43 24.11 41.78 24.11 52 45.73 39.54 45.73 24.82 45.73 14.61 36.87 19.72"/><polygon class="cls-3" points="8.86 19.72 0 14.61 0 39.54 21.63 52 21.63 41.78 8.86 34.43 8.86 19.72"/><path class="cls-4" d="M51.74,43.77l.59-.12c.07.33.34.5.81.5a.84.84,0,0,0,.49-.13.38.38,0,0,0,.18-.32.44.44,0,0,0-.08-.25.63.63,0,0,0-.34-.19l-.64-.16a1.54,1.54,0,0,1-.49-.2.72.72,0,0,1-.25-.31,1,1,0,0,1-.1-.42.89.89,0,0,1,.34-.72,1.31,1.31,0,0,1,.85-.27,1.55,1.55,0,0,1,.78.19.84.84,0,0,1,.43.53l-.57.14a.59.59,0,0,0-.62-.38.65.65,0,0,0-.43.12.37.37,0,0,0-.15.3c0,.19.15.33.46.4l.57.15a1.13,1.13,0,0,1,.7.38,1,1,0,0,1,.18.56.93.93,0,0,1-.38.78,1.52,1.52,0,0,1-1,.28,1.75,1.75,0,0,1-.87-.21A1,1,0,0,1,51.74,43.77Z"/><path class="cls-4" d="M59.48,41.23v2.15a1.68,1.68,0,0,1-.1.67.83.83,0,0,1-.38.41,1.53,1.53,0,0,1-1.36,0,.82.82,0,0,1-.38-.4,1.54,1.54,0,0,1-.12-.65v-2.2h.62v2.15c0,.3.06.49.19.58a.69.69,0,0,0,.43.14.64.64,0,0,0,.45-.15.76.76,0,0,0,.17-.57V41.23Z"/><path class="cls-4" d="M63,44.58h-.61V41.23h1.38a1.15,1.15,0,0,1,.87.3,1,1,0,0,1,0,1.44,1.08,1.08,0,0,1-.78.28H63Zm0-1.85h.71a.61.61,0,0,0,.43-.13.48.48,0,0,0,.15-.37.5.5,0,0,0-.14-.35.65.65,0,0,0-.49-.15H63Z"/><path class="cls-4" d="M69.79,44.58H67.61V41.23h2.16v.5H68.21v.91h1.25v.48H68.21v.94h1.58Z"/><path class="cls-4" d="M75.14,44.58H74.5L74,43.2h-.85v1.38h-.61V41.23H74a1.26,1.26,0,0,1,.89.27,1,1,0,0,1,.28.71.89.89,0,0,1-.6.89Zm-2-1.86h.75a.71.71,0,0,0,.48-.14.46.46,0,0,0,.16-.38.45.45,0,0,0-.15-.35.66.66,0,0,0-.44-.14h-.8Z"/><path class="cls-4" d="M84,42.87v1.71h-.27l-.18-.45a1,1,0,0,1-.91.5,1.13,1.13,0,0,1-1-.52,2.13,2.13,0,0,1-.34-1.2,2,2,0,0,1,.38-1.23,1.36,1.36,0,0,1,1.89-.21,1.31,1.31,0,0,1,.41.73l-.53.1a.68.68,0,0,0-.7-.62.71.71,0,0,0-.58.29,1.44,1.44,0,0,0-.23.89c0,.85.27,1.27.8,1.27a.66.66,0,0,0,.51-.21.78.78,0,0,0,.2-.57h-.69v-.48Z"/><path class="cls-4" d="M89.54,44.58h-.65l-.27-.8H87.33l-.26.8h-.52l1.12-3.35h.74ZM88.46,43.3,88,41.8l-.49,1.5Z"/><path class="cls-4" d="M95.44,44.58h-.61V41.65l-.93,2.93h-.32l-.94-2.93v2.93h-.49V41.23h.95l.7,2.16.69-2.16h1Z"/><path class="cls-4" d="M100.57,44.58H98.39V41.23h2.16v.5H99v.91h1.25v.48H99v.94h1.57Z"/><path class="cls-4" d="M109.08,41.23v2.15a1.89,1.89,0,0,1-.1.67.87.87,0,0,1-.38.41,1.36,1.36,0,0,1-.69.17,1.33,1.33,0,0,1-.67-.15.78.78,0,0,1-.38-.4,1.54,1.54,0,0,1-.12-.65v-2.2h.62v2.15c0,.3.06.49.18.58a.74.74,0,0,0,.44.14.66.66,0,0,0,.45-.15.76.76,0,0,0,.17-.57V41.23Z"/><path class="cls-4" d="M114.51,44.58h-.58l-1.28-2.14-.09-.16-.09-.15v2.45H112V41.23h.67l1.17,2,.22.36V41.23h.47Z"/><path class="cls-4" d="M118.07,44.58h-.61V41.23h.61Z"/><path class="cls-4" d="M122.25,44.63a1.24,1.24,0,0,1-1-.5,2,2,0,0,1-.37-1.24,1.92,1.92,0,0,1,.39-1.22,1.29,1.29,0,0,1,1-.49,1.23,1.23,0,0,1,1,.49,1.92,1.92,0,0,1,.38,1.23,1.89,1.89,0,0,1-.39,1.25A1.3,1.3,0,0,1,122.25,44.63Zm0-.48a.7.7,0,0,0,.55-.27,1.58,1.58,0,0,0,.23-1,1.9,1.9,0,0,0-.19-.91.63.63,0,0,0-.58-.33c-.52,0-.78.42-.78,1.25a1.74,1.74,0,0,0,.2.92A.63.63,0,0,0,122.26,44.15Z"/><path class="cls-4" d="M129,44.58h-.59l-1.27-2.14-.1-.16-.09-.15v2.45h-.48V41.23h.66l1.18,2,.21.36V41.23H129Z"/><polygon class="cls-4" points="66.73 31.82 66.92 31.82 65.6 36.06 51.97 36.06 52.06 30.25 58.85 30.25 58.85 31.76 66.73 31.82"/><polygon class="cls-4" points="73.96 12.79 73.96 17.1 73.95 17.1 73.95 18.53 67.07 18.53 67.07 17.1 59.52 17.1 59.52 22.08 71.26 22.08 73.94 24.45 73.94 36.06 66.92 36.06 66.92 31.82 66.97 31.82 66.97 26.29 52.46 26.29 52.46 12.79 73.96 12.79"/><polygon class="cls-4" points="76.66 36.09 92.89 36.09 94.21 31.85 84.62 31.85 84.62 17.2 101.29 17.2 101.29 12.96 76.66 12.96 76.66 36.09"/><polygon class="cls-4" points="88.4 26.23 94.27 26.23 94.27 36.09 101.29 36.09 101.29 22.02 88.4 22.02 88.4 26.23"/><rect class="cls-4" x="121.64" y="12.99" width="7.26" height="23.1"/><polygon class="cls-4" points="111.42 12.99 103.99 12.99 103.99 36.09 119.38 36.09 121.58 31.82 111.42 31.82 111.42 12.99"/></svg>